#!OML:ASF I:\Actors\actors\Patient Classification 2\Patient 1\Session 1\actor1.ASF
:FULLY-SPECIFIED
:DEGREES
671
root -0.327937 18.5182 4.563 15.0775 0.864601 -8.22763
lowerback 23.138 0.892332 -1.61257
upperback 4.90998 1.01126 2.74016
thorax -7.58071 0.531251 3.63164
lowerneck 9.02937 -18.1772 -14.6619
upperneck 8.22359 -27.5501 24.2639
head 6.60113 -13.8698 8.05946
rclavicle -5.56597e-015 -1.90833e-014
rhumerus 61.9266 -2.15565 -60.0379
rradius 76.2022
rwrist 17.7903
rhand 21.8467 -53.5325
rfingers 7.12502
rthumb 46.2514 -76.5217
lclavicle -5.56597e-015 -1.90833e-014
lhumerus -38.9641 -2.51594 84.1805
lradius 72.3712
lwrist 13.8365
lhand -7.54117 -21.5111
lfingers 7.12502
lthumb 18.3503 7.64334
rfemur -19.7477 -1.05053 21.7989
rtibia 14.5214
rfoot -16.3224 -10.4255
rtoes -11.3455
lfemur -34.4655 2.12597 -5.92231
ltibia 39.1498
lfoot -19.9027 6.7655
ltoes -56.1842
672
root -0.322571 18.5196 4.57637 15.0725 0.951625 -8.23963
lowerback 23.0595 0.896922 -1.57319
upperback 4.84783 1.0329 2.79071
thorax -7.61045 0.542796 3.65834
lowerneck 8.89648 -18.2119 -14.5767
upperneck 8.12513 -27.5745 24.3177
head 6.59369 -13.8734 8.04761
rclavicle 9.54166e-015 -4.77083e-015
rhumerus 62.153 -2.46383 -60.3955
rradius 76.3813
rwrist 18.631
rhand 19.3436 -53.7108
rfingers 7.12502
rthumb 43.9232 -77.6223
lclavicle 9.54166e-015 -4.77083e-015
lhumerus -39.0886 -2.53666 84.2897
lradius 72.3736
lwrist 13.7889
lhand -7.54925 -21.538
lfingers 7.12502
lthumb 18.3425 7.61719
rfemur -19.6549 -1.06173 21.8012
rtibia 14.4539
rfoot -16.3712 -10.4888
rtoes -11.4403
lfemur -34.4257 2.03226 -5.90898
ltibia 39.1274
lfoot -19.9368 6.79836
ltoes -56.2255
673
root -0.317928 18.5213 4.59099 15.0298 1.0328 -8.25021
lowerback 23.0101 0.89478 -1.57197
upperback 4.78893 1.03941 2.87122
thorax -7.65167 0.548254 3.74468
lowerneck 8.9028 -18.2206 -14.5758
upperneck 7.89275 -27.5513 24.369
head 6.52241 -13.873 8.07024
rclavicle 1.11319e-014 3.97569e-015
rhumerus 62.3703 -2.71152 -60.6554
rradius 76.512
rwrist 19.6032
rhand 17.2009 -53.8492
rfingers 7.12502
rthumb 41.9191 -78.4663
lclavicle 1.11319e-014 3.97569e-015
lhumerus -39.2169 -2.47522 84.4129
lradius 72.346
lwrist 13.7415
lhand -7.52634 -21.5407
lfingers 7.12502
lthumb 18.3645 7.61239
rfemur -19.5152 -1.08975 21.806
rtibia 14.383
rfoot -16.3997 -10.5544
rtoes -11.6189
lfemur -34.3435 2.00438 -5.91179
ltibia 39.1111
lfoot -19.9608 6.76584
ltoes -56.2083
674
root -0.311005 18.5237 4.60672 14.9907 1.09115 -8.19925
lowerback 22.9319 0.904036 -1.55123
upperback 4.73648 1.06006 2.895
thorax -7.67051 0.559186 3.75286
lowerneck 8.89895 -18.2916 -14.5046
upperneck 7.6778 -27.6044 24.3804
head 6.45802 -13.9064 8.05687
rclavicle 1.70955e-014 9.54166e-015
rhumerus 62.5672 -3.07587 -60.8699
rradius 76.5612
rwrist 20.6432
rhand 15.1141 -53.8432
rfingers 7.12502
rthumb 39.959 -79.0816
lclavicle 1.70955e-014 9.54166e-015
lhumerus -39.3483 -2.5174 84.5152
lradius 72.324
lwrist 13.7889
lhand -7.47183 -21.5801
lfingers 7.12502
lthumb 18.417 7.56806
rfemur -19.3769 -1.1649 21.7399
rtibia 14.3159
rfoot -16.3945 -10.5783
rtoes -11.6582
lfemur -34.2592 2.0011 -6.00042
ltibia 39.1016
lfoot -19.981 6.68497
ltoes -56.2011
675
root -0.303203 18.5249 4.62113 14.9824 1.14995 -8.17647
lowerback 22.8219 0.904623 -1.45361
upperback 4.68083 1.08535 2.89489
thorax -7.67487 0.570303 3.68884
lowerneck 8.85249 -18.361 -14.3982
upperneck 7.46793 -27.6551 24.4177
head 6.40109 -13.9348 8.04348
rclavicle -1.35174e-014 -2.82274e-014
rhumerus 62.824 -3.47629 -60.9578
rradius 76.5698
rwrist 21.4392
rhand 12.7437 -53.9614
rfingers 7.12502
rthumb 37.7237 -79.8353
lclavicle -1.35174e-014 -2.82274e-014
lhumerus -39.4808 -2.62725 84.5728
lradius 72.3025
lwrist 13.8498
lhand -7.42053 -21.5461
lfingers 7.12502
lthumb 18.4663 7.59736
rfemur -19.2772 -1.21079 21.6999
rtibia 14.2475
rfoot -16.4098 -10.6126
rtoes -11.5761
lfemur -34.2149 1.9392 -6.04312
ltibia 39.0957
lfoot -20.0039 6.65376
ltoes -56.229
676
root -0.296296 18.525 4.63361 14.9717 1.19908 -8.17526
lowerback 22.7388 0.880773 -1.42375
upperback 4.60185 1.06885 2.95401
thorax -7.71794 0.564267 3.74175
lowerneck 8.87808 -18.2778 -14.4758
upperneck 7.22062 -27.5125 24.4861
head 6.31113 -13.8807 8.10531
rclavicle -1.51076e-014 -5.1684e-015
rhumerus 63.1697 -3.69793 -60.6931
rradius 76.6239
rwrist 21.7463
rhand 10.7779 -54.433
rfingers 7.12502
rthumb 35.8637 -80.7828
lclavicle -1.51076e-014 -5.1684e-015
lhumerus -39.6606 -2.51718 84.6592
lradius 72.2367
lwrist 13.7493
lhand -7.36347 -21.5357
lfingers 7.12502
lthumb 18.5212 7.60254
rfemur -19.192 -1.25953 21.6873
rtibia 14.1835
rfoot -16.3871 -10.6509
rtoes -11.7135
lfemur -34.1727 1.81437 -6.04244
ltibia 39.088
lfoot -20.0318 6.71015
ltoes -56.2233
677
root -0.289758 18.5257 4.64674 14.9747 1.2474 -8.17736
lowerback 22.6897 0.827413 -1.47769
upperback 4.49285 0.999687 3.06211
thorax -7.80973 0.536594 3.91294
lowerneck 8.76137 -18.3054 -14.6149
upperneck 7.11298 -27.5455 24.5106
head 6.32776 -13.8957 8.10905
rclavicle -7.95139e-015 1.59028e-015
rhumerus 63.4734 -3.69205 -60.4138
rradius 76.7162
rwrist 21.9887
rhand 9.48671 -54.8788
rfingers 7.12502
rthumb 34.6393 -81.5183
lclavicle -7.95139e-015 1.59028e-015
lhumerus -39.8952 -2.21449 84.7664
lradius 72.1624
lwrist 13.6029
lhand -7.35658 -21.5148
lfingers 7.12502
lthumb 18.5278 7.62287
rfemur -19.1211 -1.32975 21.6861
rtibia 14.1219
rfoot -16.3373 -10.6797
rtoes -12.0317
lfemur -34.1411 1.7192 -6.04317
ltibia 39.0787
lfoot -20.059 6.75424
ltoes -56.1907
678
root -0.283351 18.5275 4.66235 15.0039 1.29446 -8.14747
lowerback 22.615 0.785874 -1.51484
upperback 4.41691 0.942922 3.10287
thorax -7.85098 0.512706 3.99609
lowerneck 8.51984 -18.1877 -14.6422
upperneck 7.07815 -27.3732 24.549
head 6.33026 -13.7964 8.12907
rclavicle 1.59028e-014 1.90833e-014
rhumerus 63.7103 -3.72472 -60.5239
rradius 76.6288
rwrist 22.8246
rhand 8.29012 -54.8561
rfingers 7.12502
rthumb 33.5028 -81.7488
lclavicle 1.59028e-014 1.90833e-014
lhumerus -40.0263 -2.04589 84.8003
lradius 72.0883
lwrist 13.5381
lhand -7.45601 -21.3544
lfingers 7.12502
lthumb 18.4322 7.79228
rfemur -19.0558 -1.36722 21.6407
rtibia 14.0494
rfoot -16.3549 -10.6977
rtoes -12.1336
lfemur -34.1246 1.66745 -6.08957
ltibia 39.0636
lfoot -20.1024 6.734
ltoes -56.1627
679
root -0.27723 18.5286 4.67727 15.0081 1.33144 -8.08905
lowerback 22.5809 0.778152 -1.48952
upperback 4.33747 0.937826 3.0709
thorax -7.91933 0.511671 3.9482
lowerneck 8.38042 -18.2718 -14.391
upperneck 6.79039 -27.4017 24.5106
head 6.22688 -13.8094 8.07013
rclavicle -9.34288e-015 6.75868e-015
rhumerus 63.9036 -4.02578 -60.4005
rradius 76.6547
rwrist 23.7967
rhand 6.57857 -54.7777
rfingers 7.12502
rthumb 31.8745 -82.0088
lclavicle -9.34288e-015 6.75868e-015
lhumerus -40.1349 -2.09665 84.7917
lradius 72.0119
lwrist 13.55
lhand -7.48297 -21.3194
lfingers 7.12502
lthumb 18.4063 7.8298
rfemur -18.9578 -1.38215 21.5547
rtibia 13.9677
rfoot -16.401 -10.7001
rtoes -11.999
lfemur -34.0774 1.59204 -6.1646
ltibia 39.0435
lfoot -20.1672 6.73355
ltoes -56.1615
680
root -0.272168 18.5287 4.69028 14.9642 1.35651 -8.07322
lowerback 22.6054 0.796125 -1.43476
upperback 4.2454 0.975211 3.06225
thorax -8.03589 0.531201 3.89733
lowerneck 8.52749 -18.3164 -14.3066
upperneck 6.27315 -27.3951 24.7065
head 6.05979 -13.8408 8.14516
rclavicle -1.39149e-015 -2.22639e-014
rhumerus 64.0267 -4.31729 -60.345
rradius 76.5358
rwrist 24.8845
rhand 4.2933 -54.1296
rfingers 7.12502
rthumb 29.6957 -81.7715
lclavicle -1.39149e-015 -2.22639e-014
lhumerus -40.2419 -2.16269 84.814
lradius 71.8964
lwrist 13.5357
lhand -7.30748 -21.4377
lfingers 7.12502
lthumb 18.5751 7.69549
rfemur -18.8169 -1.39678 21.5234
rtibia 13.8823
rfoot -16.3997 -10.7306
rtoes -12.1374
lfemur -33.9798 1.52634 -6.19364
ltibia 39.0225
lfoot -20.2171 6.75784
ltoes -56.175
681
root -0.268134 18.5289 4.70356 14.9363 1.35494 -8.07848
lowerback 22.5749 0.826041 -1.39812
upperback 4.16578 1.02535 3.07228
thorax -8.11139 0.556611 3.87323
lowerneck 8.55533 -18.3031 -14.2554
upperneck 5.87935 -27.3341 24.9497
head 5.95251 -13.8318 8.2339
rclavicle -1.35174e-014 2.18663e-014
rhumerus 64.167 -4.60065 -60.1723
rradius 76.3831
rwrist 25.6237
rhand 2.30832 -53.4219
rfingers 7.12502
rthumb 27.7994 -81.3858
lclavicle -1.35174e-014 2.18663e-014
lhumerus -40.3447 -2.17477 84.8598
lradius 71.7822
lwrist 13.4215
lhand -7.18521 -21.4097
lfingers 7.12502
lthumb 18.6927 7.71219
rfemur -18.6921 -1.44584 21.5305
rtibia 13.7815
rfoot -16.3375 -10.7482
rtoes -12.3743
lfemur -33.8945 1.49607 -6.20514
ltibia 39.0036
lfoot -20.2502 6.79528
ltoes -56.168
682
root -0.263997 18.53 4.71736 14.9616 1.34709 -8.06405
lowerback 22.4784 0.834846 -1.39599
upperback 4.07296 1.03968 3.07496
thorax -8.1642 0.565639 3.87106
lowerneck 8.45501 -18.2497 -14.1453
upperneck 5.57532 -27.2169 25.1522
head 5.86758 -13.7813 8.29821
rclavicle 4.96962e-015 1.07344e-014
rhumerus 64.3192 -4.81481 -59.9038
rradius 76.2274
rwrist 26.0521
rhand 0.365791 -53.038
rfingers 7.12502
rthumb 25.9407 -81.288
lclavicle 4.96962e-015 1.07344e-014
lhumerus -40.5066 -2.12775 84.8908
lradius 71.7124
lwrist 13.3168
lhand -7.17725 -21.2896
lfingers 7.12502
lthumb 18.7003 7.83155
rfemur -18.621 -1.5209 21.5191
rtibia 13.6676
rfoot -16.28 -10.7044
rtoes -12.1518
lfemur -33.8719 1.49098 -6.24522
ltibia 38.9895
lfoot -20.2752 6.85006
ltoes -56.1769
683
root -0.259453 18.532 4.73133 14.9731 1.36048 -8.03588
lowerback 22.4319 0.82587 -1.39356
upperback 3.96835 1.03135 3.07794
thorax -8.25455 0.564552 3.87617
lowerneck 8.38878 -18.2412 -14.0158
upperneck 5.19884 -27.139 25.293
head 5.75049 -13.7562 8.33853
rclavicle -8.94531e-015 1.11319e-014
rhumerus 64.4884 -4.97131 -59.6408
rradius 76.0335
rwrist 26.5904
rhand -1.87217 -52.6875
rfingers 7.12502
rthumb 23.796 -81.2338
lclavicle -8.94531e-015 1.11319e-014
lhumerus -40.6769 -2.05051 84.9057
lradius 71.6344
lwrist 13.3117
lhand -7.07804 -21.2791
lfingers 7.12502
lthumb 18.7958 7.83278
rfemur -18.5326 -1.56795 21.4795
rtibia 13.5647
rfoot -16.2934 -10.6554
rtoes -11.8083
lfemur -33.8382 1.47089 -6.29698
ltibia 38.9763
lfoot -20.3119 6.87968
ltoes -56.1993
684
root -0.255453 18.5331 4.7449 14.9426 1.38577 -8.01936
lowerback 22.4719 0.823027 -1.33822
upperback 3.837 1.04318 3.07226
thorax -8.42087 0.572851 3.83619
lowerneck 8.40107 -18.3014 -13.9149
upperneck 4.86675 -27.1543 25.3064
head 5.63742 -13.7801 8.33413
rclavicle 6.55989e-015 1.94809e-014
rhumerus 64.5934 -5.16585 -59.3282
rradius 75.8062
rwrist 27.3896
rhand -3.68036 -52.1527
rfingers 7.12502
rthumb 22.0609 -80.9144
lclavicle 6.55989e-015 1.94809e-014
lhumerus -40.8617 -2.04583 84.9278
lradius 71.5354
lwrist 13.3186
lhand -6.9203 -21.3513
lfingers 7.12502
lthumb 18.9475 7.74585
rfemur -18.3983 -1.60867 21.4511
rtibia 13.4649
rfoot -16.3365 -10.6323
rtoes -11.3678
lfemur -33.7562 1.39574 -6.31524
ltibia 38.9596
lfoot -20.3685 6.89338
ltoes -56.1702
685
root -0.251893 18.5337 4.7571 14.9244 1.40279 -7.99957
lowerback 22.489 0.819155 -1.29468
upperback 3.70565 1.05101 3.06686
thorax -8.57508 0.579283 3.80437
lowerneck 8.46188 -18.3221 -13.961
upperneck 4.5904 -27.1559 25.4225
head 5.56837 -13.8004 8.38537
rclavicle 2.18663e-015 1.19271e-014
rhumerus 64.4415 -5.18541 -59.5105
rradius 75.4813
rwrist 28.8031
rhand -5.26846 -51.1181
rfingers 7.12502
rthumb 20.5355 -80.052
lclavicle 2.18663e-015 1.19271e-014
lhumerus -41.0325 -2.04326 84.9645
lradius 71.4292
lwrist 13.2932
lhand -6.84999 -21.4572
lfingers 7.12502
lthumb 19.0151 7.63333
rfemur -18.2916 -1.68631 21.4312
rtibia 13.3675
rfoot -16.3267 -10.6236
rtoes -11.1124
lfemur -33.6857 1.29974 -6.33057
ltibia 38.9381
lfoot -20.4081 6.95125
ltoes -56.1719
